<svg width="103" height="101" viewBox="0 0 103 101" fill="none" xmlns="http://www.w3.org/2000/svg">
<g clip-path="url(#clip0_22_42)">
<path fill-rule="evenodd" clip-rule="evenodd" d="M56.0492 67.5858C54.8421 68.7679 53.2059 69.4319 51.5 69.4319C49.7941 69.4319 48.1579 68.7679 46.9508 67.5858L22.6686 43.7835C21.4615 42.5993 20.7836 40.9934 20.784 39.3191C20.7844 37.6447 21.4631 36.0391 22.6707 34.8555C23.8784 33.6719 25.5161 33.0071 27.2236 33.0075C28.931 33.0079 30.5684 33.6734 31.7755 34.8576L51.5 54.1991L71.2245 34.8576C72.4381 33.7072 74.0639 33.0701 75.7518 33.0837C77.4397 33.0973 79.0546 33.7605 80.2488 34.9303C81.4429 36.1001 82.1207 37.6831 82.1362 39.3382C82.1516 40.9933 81.5035 42.5882 80.3314 43.7793L56.0535 67.59L56.0492 67.5858Z" fill="#F9BC49"/>
</g>
<defs>
<clipPath id="clip0_22_42">
<rect width="103" height="101" fill="white"/>
</clipPath>
</defs>
</svg>
