<svg width="27" height="27" viewBox="0 0 27 27" fill="none" xmlns="http://www.w3.org/2000/svg">
<path d="M11.5234 18.3532L6.75 13.5787L8.34075 11.988L11.5234 15.1695L17.8864 8.80536L19.4782 10.3972L11.5234 18.3532Z" fill="#EFD105"/>
<path fill-rule="evenodd" clip-rule="evenodd" d="M1.125 13.5C1.125 6.66563 6.66563 1.125 13.5 1.125C20.3344 1.125 25.875 6.66563 25.875 13.5C25.875 20.3344 20.3344 25.875 13.5 25.875C6.66563 25.875 1.125 20.3344 1.125 13.5ZM13.5 23.625C12.1704 23.625 10.8538 23.3631 9.62533 22.8543C8.39691 22.3455 7.28074 21.5996 6.34054 20.6595C5.40035 19.7193 4.65455 18.6031 4.14572 17.3747C3.63689 16.1462 3.375 14.8296 3.375 13.5C3.375 12.1704 3.63689 10.8538 4.14572 9.62533C4.65455 8.39691 5.40035 7.28074 6.34054 6.34054C7.28074 5.40035 8.39691 4.65455 9.62533 4.14572C10.8538 3.63689 12.1704 3.375 13.5 3.375C16.1853 3.375 18.7606 4.44174 20.6595 6.34054C22.5583 8.23935 23.625 10.8147 23.625 13.5C23.625 16.1853 22.5583 18.7606 20.6595 20.6595C18.7606 22.5583 16.1853 23.625 13.5 23.625Z" fill="#EFD105"/>
</svg>
